<?xml version="1.0" encoding="utf-8"?><svg xmlns="http://www.w3.org/2000/svg" xmlns:xlink="http://www.w3.org/1999/xlink" viewBox="0 0 128 128" width="64px" height="64px"><g><path d="M64,6C32,6,6,32,6,64s26,58,58,58s58-26,58-58S96,6,64,6z M64,116c-28.7,0-52-23.3-52-52s23.3-52,52-52s52,23.3,52,52S92.7,116,64,116z"/><path d="M82.9,49.9L62,71.6L51.1,59.9c-1.1-1.2-3-1.3-4.2-0.2c-1.2,1.1-1.3,3-0.2,4.2L59.8,78c0.6,0.6,1.3,1,2.2,1c0,0,0,0,0,0c0.8,0,1.6-0.3,2.2-0.9L87.2,54c1.1-1.2,1.1-3.1-0.1-4.2C86,48.6,84.1,48.7,82.9,49.9z"/></g></svg>